# xmcd
# 
# Track frame offsets:
#     150
#     13190
#     26592
#     37975
#     50497
#     60272
#     76150
#     85915
#     108175
#     115557
#     132665
#     147187
#     159557
# 
# Disc length: 2310
# 
# Revision: 1
# Processed by: cddbd v1.5.2PL0 Copyright (c) Steve Scherf et al.
# Submitted via: fre:ac v1.0.17
# 
DISCID=9c09040d
DTITLE=Canamé - Na Linha Da Vida
DYEAR=1998
DGENRE=Fado/Portugal
TTITLE0=Ah Quanta Melancolia
TTITLE1=Fado Penelope
TTITLE2=Senhora Do Livramento
TTITLE3=Ponto Do Encontro
TTITLE4=O Meu Amor Anda Em Fama
TTITLE5=Eu Não Me Entendo
TTITLE6=Mote
TTITLE7=Sopram Ventos Adversos
TTITLE8=A Minha Rua
TTITLE9=Guitarra, Guitarra
TTITLE10=A Merce De Uma Saudade
TTITLE11=Maria
TTITLE12=Não Sei
EXTD=YEAR: 1998 ID3G: 250
EXTT0=
EXTT1=
EXTT2=
EXTT3=
EXTT4=
EXTT5=
EXTT6=
EXTT7=
EXTT8=
EXTT9=
EXTT10=
EXTT11=
EXTT12=
PLAYORDER=
